  0
SECTION
  2
HEADER
  9
$ACADVER
  1
AC1009
  9
$DWGCODEPAGE
  3
ansi_1252
  9
$INSBASE
 10
0.0
 20
0.0
 30
0.0
  9
$EXTMIN
 10
14.40548803603715
 20
52.83928952042544
 30
0.0
  9
$EXTMAX
 10
1206.169748891064
 20
2411.8425
 30
0.0
  9
$LIMMIN
 10
0.0
 20
0.0
  9
$LIMMAX
 10
12.0
 20
9.0
  9
$ORTHOMODE
 70
     0
  9
$REGENMODE
 70
     1
  9
$FILLMODE
 70
     1
  9
$QTEXTMODE
 70
     0
  9
$MIRRTEXT
 70
     1
  9
$DRAGMODE
 70
     2
  9
$LTSCALE
 40
1.0
  9
$OSMODE
 70
    37
  9
$ATTMODE
 70
     1
  9
$TEXTSIZE
 40
0.2
  9
$TRACEWID
 40
0.05
  9
$TEXTSTYLE
  7
STANDARD
  9
$CLAYER
  8
0
  9
$CELTYPE
  6
BYLAYER
  9
$CECOLOR
 62
   256
  9
$DIMSCALE
 40
1.0
  9
$DIMASZ
 40
0.18
  9
$DIMEXO
 40
0.0625
  9
$DIMDLI
 40
0.38
  9
$DIMRND
 40
0.0
  9
$DIMDLE
 40
0.0
  9
$DIMEXE
 40
0.18
  9
$DIMTP
 40
0.0
  9
$DIMTM
 40
0.0
  9
$DIMTXT
 40
0.18
  9
$DIMCEN
 40
0.09
  9
$DIMTSZ
 40
0.0
  9
$DIMTOL
 70
     0
  9
$DIMLIM
 70
     0
  9
$DIMTIH
 70
     1
  9
$DIMTOH
 70
     1
  9
$DIMSE1
 70
     0
  9
$DIMSE2
 70
     0
  9
$DIMTAD
 70
     0
  9
$DIMZIN
 70
     0
  9
$DIMBLK
  1

  9
$DIMASO
 70
     1
  9
$DIMSHO
 70
     1
  9
$DIMPOST
  1

  9
$DIMAPOST
  1

  9
$DIMALT
 70
     0
  9
$DIMALTD
 70
     2
  9
$DIMALTF
 40
25.4
  9
$DIMLFAC
 40
1.0
  9
$DIMTOFL
 70
     0
  9
$DIMTVP
 40
0.0
  9
$DIMTIX
 70
     0
  9
$DIMSOXD
 70
     0
  9
$DIMSAH
 70
     0
  9
$DIMBLK1
  1

  9
$DIMBLK2
  1

  9
$DIMSTYLE
  2
STANDARD
  9
$DIMCLRD
 70
     0
  9
$DIMCLRE
 70
     0
  9
$DIMCLRT
 70
     0
  9
$DIMTFAC
 40
1.0
  9
$DIMGAP
 40
0.09
  9
$LUNITS
 70
     2
  9
$LUPREC
 70
     4
  9
$SKETCHINC
 40
0.1
  9
$FILLETRAD
 40
0.5
  9
$AUNITS
 70
     0
  9
$AUPREC
 70
     0
  9
$MENU
  1
.
  9
$ELEVATION
 40
0.0
  9
$PELEVATION
 40
0.0
  9
$THICKNESS
 40
0.0
  9
$LIMCHECK
 70
     0
  9
$CHAMFERA
 40
0.0
  9
$CHAMFERB
 40
0.0
  9
$SKPOLY
 70
     0
  9
$TDCREATE
 40
2454910.5
  9
$TDUPDATE
 40
2457156.793528252
  9
$TDINDWG
 40
0.0000000116
  9
$TDUSRTIMER
 40
0.0000000116
  9
$USRTIMER
 70
     1
  9
$ANGBASE
 50
0.0
  9
$ANGDIR
 70
     0
  9
$PDMODE
 70
     0
  9
$PDSIZE
 40
0.0
  9
$PLINEWID
 40
0.0
  9
$COORDS
 70
     1
  9
$SPLFRAME
 70
     0
  9
$SPLINETYPE
 70
     6
  9
$SPLINESEGS
 70
     8
  9
$ATTDIA
 70
     0
  9
$ATTREQ
 70
     1
  9
$HANDLING
 70
     1
  9
$HANDSEED
  5
28C
  9
$SURFTAB1
 70
     6
  9
$SURFTAB2
 70
     6
  9
$SURFTYPE
 70
     6
  9
$SURFU
 70
     6
  9
$SURFV
 70
     6
  9
$UCSNAME
  2

  9
$UCSORG
 10
0.0
 20
0.0
 30
0.0
  9
$UCSXDIR
 10
1.0
 20
0.0
 30
0.0
  9
$UCSYDIR
 10
0.0
 20
1.0
 30
0.0
  9
$PUCSNAME
  2

  9
$PUCSORG
 10
0.0
 20
0.0
 30
0.0
  9
$PUCSXDIR
 10
1.0
 20
0.0
 30
0.0
  9
$PUCSYDIR
 10
0.0
 20
1.0
 30
0.0
  9
$USERI1
 70
     0
  9
$USERI2
 70
     0
  9
$USERI3
 70
     0
  9
$USERI4
 70
     0
  9
$USERI5
 70
     0
  9
$USERR1
 40
0.0
  9
$USERR2
 40
0.0
  9
$USERR3
 40
0.0
  9
$USERR4
 40
0.0
  9
$USERR5
 40
0.0
  9
$WORLDVIEW
 70
     1
  9
$SHADEDGE
 70
     3
  9
$SHADEDIF
 70
    70
  9
$TILEMODE
 70
     1
  9
$MAXACTVP
 70
    64
  9
$PLIMCHECK
 70
     0
  9
$PEXTMIN
 10
1.000000000000000E+20
 20
1.000000000000000E+20
 30
1.000000000000000E+20
  9
$PEXTMAX
 10
-1.000000000000000E+20
 20
-1.000000000000000E+20
 30
-1.000000000000000E+20
  9
$PLIMMIN
 10
0.0
 20
0.0
  9
$PLIMMAX
 10
12.0
 20
9.0
  9
$UNITMODE
 70
     0
  9
$VISRETAIN
 70
     1
  9
$PLINEGEN
 70
     0
  9
$PSLTSCALE
 70
     1
  0
ENDSEC
  0
SECTION
  2
TABLES
  0
TABLE
  2
VPORT
 70
     1
  0
VPORT
  2
*ACTIVE
 70
     0
 10
0.0
 20
0.0
 11
1.0
 21
1.0
 12
10.42990654205607
 22
4.5
 13
0.0
 23
0.0
 14
0.5
 24
0.5
 15
0.5
 25
0.5
 16
0.0
 26
0.0
 36
1.0
 17
0.0
 27
0.0
 37
0.0
 40
9.0
 41
1.972972972850329
 42
50.0
 43
0.0
 44
0.0
 50
0.0
 51
0.0
 71
     0
 72
   100
 73
     1
 74
     3
 75
     0
 76
     0
 77
     0
 78
     0
  0
ENDTAB
  0
TABLE
  2
LTYPE
 70
     2
  0
LTYPE
  2
CONTINUOUS
 70
     0
  3
Solid line
 72
    65
 73
     0
 40
0.0
  0
LTYPE
  2
CONTINUOUS2
 70
     0
  3
Solid Line
 72
    65
 73
     0
 40
0.0
  0
ENDTAB
  0
TABLE
  2
LAYER
 70
     5
  0
LAYER
  2
0
 70
     0
 62
     7
  6
CONTINUOUS
  0
LAYER
  2
OUTSIDE
 70
     0
 62
     1
  6
CONTINUOUS
  0
LAYER
  2
INSIDE
 70
     0
 62
     4
  6
CONTINUOUS
  0
LAYER
  2
DRILL
 70
     0
 62
     3
  6
CONTINUOUS
  0
LAYER
  2
POCKET
 70
     0
 62
     6
  6
CONTINUOUS
  0
ENDTAB
  0
TABLE
  2
STYLE
 70
     1
  0
STYLE
  2
STANDARD
 70
     0
 40
0.0
 41
1.0
 50
0.0
 71
     0
 42
0.2
  3
txt
  4

  0
ENDTAB
  0
TABLE
  2
VIEW
 70
     0
  0
ENDTAB
  0
TABLE
  2
UCS
 70
     0
  0
ENDTAB
  0
TABLE
  2
APPID
 70
     1
  0
APPID
  2
ACAD
 70
     0
  0
ENDTAB
  0
TABLE
  2
DIMSTYLE
 70
     1
  0
DIMSTYLE
  2
STANDARD
 70
     0
  3

  4

  5

  6

  7

 40
1.0
 41
0.18
 42
0.0625
 43
0.38
 44
0.18
 45
0.0
 46
0.0
 47
0.0
 48
0.0
140
0.18
141
0.09
142
0.0
143
25.4
144
1.0
145
0.0
146
1.0
147
0.09
 71
     0
 72
     0
 73
     1
 74
     1
 75
     0
 76
     0
 77
     0
 78
     0
170
     0
171
     2
172
     0
173
     0
174
     0
175
     0
176
     0
177
     0
178
     0
  0
ENDTAB
  0
ENDSEC
  0
SECTION
  2
BLOCKS
  0
BLOCK
  8
0
  2
$MODEL_SPACE
 70
     0
 10
0.0
 20
0.0
 30
0.0
  3
$MODEL_SPACE
  1

  0
ENDBLK
  5
21
  8
0
  0
BLOCK
 67
     1
  8
0
  2
$PAPER_SPACE
 70
     0
 10
0.0
 20
0.0
 30
0.0
  3
$PAPER_SPACE
  1

  0
ENDBLK
  5
1D
 67
     1
  8
0
  0
ENDSEC
  0
SECTION
  2
ENTITIES
  0
POLYLINE
  5
6C
  8
OUTSIDE
 66
     1
 10
0.0
 20
0.0
 30
0.0
 70
     1
  0
VERTEX
  5
94
  8
OUTSIDE
 10
886.175833333333
 20
2406.8425
 30
0.0
  0
VERTEX
  5
95
  8
OUTSIDE
 10
802.8424999999996
 20
2406.8425
 30
0.0
  0
VERTEX
  5
96
  8
OUTSIDE
 10
802.8424999999999
 20
1226.8425
 30
0.0
  0
VERTEX
  5
97
  8
OUTSIDE
 10
886.1758333333331
 20
1226.8425
 30
0.0
  0
VERTEX
  5
98
  8
OUTSIDE
 10
969.5091666666663
 20
1226.8425
 30
0.0
  0
VERTEX
  5
99
  8
OUTSIDE
 10
1052.842499999999
 20
1226.8425
 30
0.0
  0
VERTEX
  5
9A
  8
OUTSIDE
 10
1052.8425
 20
2406.8425
 30
0.0
  0
VERTEX
  5
9B
  8
OUTSIDE
 10
969.5091666666663
 20
2406.8425
 30
0.0
  0
SEQEND
  5
26E
  8
OUTSIDE
  0
POLYLINE
  5
6D
  8
OUTSIDE
 66
     1
 10
0.0
 20
0.0
 30
0.0
 70
     1
  0
VERTEX
  5
9C
  8
OUTSIDE
 10
588.0174999999995
 20
1226.8425
 30
0.0
  0
VERTEX
  5
9D
  8
OUTSIDE
 10
784.8424999999995
 20
1226.8425
 30
0.0
  0
VERTEX
  5
9E
  8
OUTSIDE
 10
784.8424999999995
 20
1567.000833333333
 30
0.0
 42
0.4142135623731046
  0
VERTEX
  5
9F
  8
OUTSIDE
 10
781.6674999999996
 20
1570.175833333333
 30
0.0
  0
VERTEX
  5
A0
  8
OUTSIDE
 10
766.8424999999995
 20
1570.175833333333
 30
0.0
 42
-1.0
  0
VERTEX
  5
A1
  8
OUTSIDE
 10
766.8424999999995
 20
1576.525833333333
 30
0.0
  0
VERTEX
  5
A2
  8
OUTSIDE
 10
766.8424999999995
 20
1611.175833333333
 30
0.0
  0
VERTEX
  5
A3
  8
OUTSIDE
 10
732.1924999999994
 20
1611.175833333333
 30
0.0
 42
-1.0
  0
VERTEX
  5
A4
  8
OUTSIDE
 10
725.8424999999995
 20
1611.175833333333
 30
0.0
  0
VERTEX
  5
A5
  8
OUTSIDE
 10
725.8424999999995
 20
1629.175833333333
 30
0.0
 42
-1.0
  0
VERTEX
  5
A6
  8
OUTSIDE
 10
732.1924999999994
 20
1629.175833333333
 30
0.0
  0
VERTEX
  5
A7
  8
OUTSIDE
 10
766.8424999999995
 20
1629.175833333333
 30
0.0
  0
VERTEX
  5
A8
  8
OUTSIDE
 10
766.8424999999995
 20
1663.825833333333
 30
0.0
 42
-1.0
  0
VERTEX
  5
A9
  8
OUTSIDE
 10
766.8424999999995
 20
1670.175833333333
 30
0.0
  0
VERTEX
  5
AA
  8
OUTSIDE
 10
781.6674999999997
 20
1670.175833333333
 30
0.0
 42
0.4142135623730941
  0
VERTEX
  5
AB
  8
OUTSIDE
 10
784.8424999999997
 20
1673.350833333333
 30
0.0
  0
VERTEX
  5
AC
  8
OUTSIDE
 10
784.8424999999997
 20
1960.334166666666
 30
0.0
 42
0.4142135623730762
  0
VERTEX
  5
AD
  8
OUTSIDE
 10
781.6674999999997
 20
1963.509166666666
 30
0.0
  0
VERTEX
  5
AE
  8
OUTSIDE
 10
766.8424999999995
 20
1963.509166666666
 30
0.0
 42
-0.4142135623730836
  0
VERTEX
  5
AF
  8
OUTSIDE
 10
763.6674999999994
 20
1966.684166666666
 30
0.0
 42
-0.4142135623730836
  0
VERTEX
  5
B0
  8
OUTSIDE
 10
766.8424999999995
 20
1969.859166666666
 30
0.0
  0
VERTEX
  5
B1
  8
OUTSIDE
 10
766.8424999999996
 20
2004.509166666666
 30
0.0
  0
VERTEX
  5
B2
  8
OUTSIDE
 10
732.1924999999997
 20
2004.509166666666
 30
0.0
 42
-0.999999999999982
  0
VERTEX
  5
B3
  8
OUTSIDE
 10
725.8424999999995
 20
2004.509166666666
 30
0.0
  0
VERTEX
  5
B4
  8
OUTSIDE
 10
725.8424999999995
 20
2022.509166666666
 30
0.0
 42
-0.4142135623731119
  0
VERTEX
  5
B5
  8
OUTSIDE
 10
729.0174999999997
 20
2025.684166666666
 30
0.0
 42
-0.414213562373112
  0
VERTEX
  5
B6
  8
OUTSIDE
 10
732.1924999999997
 20
2022.509166666666
 30
0.0
  0
VERTEX
  5
B7
  8
OUTSIDE
 10
766.8424999999996
 20
2022.509166666666
 30
0.0
  0
VERTEX
  5
B8
  8
OUTSIDE
 10
766.8424999999996
 20
2057.159166666666
 30
0.0
 42
-0.4142135623731015
  0
VERTEX
  5
B9
  8
OUTSIDE
 10
763.6674999999996
 20
2060.334166666666
 30
0.0
 42
-0.4142135623731016
  0
VERTEX
  5
BA
  8
OUTSIDE
 10
766.8424999999996
 20
2063.509166666666
 30
0.0
  0
VERTEX
  5
BB
  8
OUTSIDE
 10
781.6674999999996
 20
2063.509166666666
 30
0.0
 42
0.4142135623730762
  0
VERTEX
  5
BC
  8
OUTSIDE
 10
784.8424999999995
 20
2066.684166666666
 30
0.0
  0
VERTEX
  5
BD
  8
OUTSIDE
 10
784.8424999999996
 20
2406.8425
 30
0.0
  0
VERTEX
  5
BE
  8
OUTSIDE
 10
588.0174999999998
 20
2406.842499999999
 30
0.0
 42
0.4142135623730814
  0
VERTEX
  5
BF
  8
OUTSIDE
 10
584.8424999999996
 20
2403.667499999999
 30
0.0
  0
VERTEX
  5
C0
  8
OUTSIDE
 10
584.8424999999996
 20
2388.842499999999
 30
0.0
 42
-1.0
  0
VERTEX
  5
C1
  8
OUTSIDE
 10
578.4924999999995
 20
2388.842499999999
 30
0.0
  0
VERTEX
  5
C2
  8
OUTSIDE
 10
543.8424999999996
 20
2388.842499999999
 30
0.0
  0
VERTEX
  5
C3
  8
OUTSIDE
 10
543.8424999999995
 20
2354.192499999999
 30
0.0
 42
-0.4142135623731426
  0
VERTEX
  5
C4
  8
OUTSIDE
 10
547.0174999999996
 20
2351.017499999999
 30
0.0
 42
-0.4142135623731426
  0
VERTEX
  5
C5
  8
OUTSIDE
 10
543.8424999999996
 20
2347.842499999999
 30
0.0
  0
VERTEX
  5
C6
  8
OUTSIDE
 10
525.8424999999999
 20
2347.842499999999
 30
0.0
 42
-0.4142135623731426
  0
VERTEX
  5
C7
  8
OUTSIDE
 10
522.6674999999997
 20
2351.017499999999
 30
0.0
 42
-0.4142135623731426
  0
VERTEX
  5
C8
  8
OUTSIDE
 10
525.8424999999996
 20
2354.192499999999
 30
0.0
  0
VERTEX
  5
C9
  8
OUTSIDE
 10
525.8424999999999
 20
2388.842499999999
 30
0.0
  0
VERTEX
  5
CA
  8
OUTSIDE
 10
491.1924999999995
 20
2388.842499999999
 30
0.0
 42
-1.0
  0
VERTEX
  5
CB
  8
OUTSIDE
 10
484.8424999999996
 20
2388.842499999999
 30
0.0
  0
VERTEX
  5
CC
  8
OUTSIDE
 10
484.8424999999999
 20
2403.667499999999
 30
0.0
 42
0.4142135623730754
  0
VERTEX
  5
CD
  8
OUTSIDE
 10
481.6674999999998
 20
2406.842499999999
 30
0.0
  0
VERTEX
  5
CE
  8
OUTSIDE
 10
338.0174999999996
 20
2406.842499999999
 30
0.0
 42
0.4142135623731067
  0
VERTEX
  5
CF
  8
OUTSIDE
 10
334.8424999999996
 20
2403.667499999999
 30
0.0
  0
VERTEX
  5
D0
  8
OUTSIDE
 10
334.8424999999996
 20
2388.842499999999
 30
0.0
 42
-1.0
  0
VERTEX
  5
D1
  8
OUTSIDE
 10
328.4924999999996
 20
2388.842499999999
 30
0.0
  0
VERTEX
  5
D2
  8
OUTSIDE
 10
293.8424999999996
 20
2388.842499999999
 30
0.0
  0
VERTEX
  5
D3
  8
OUTSIDE
 10
293.8424999999996
 20
2354.192499999999
 30
0.0
 42
-0.414213562373071
  0
VERTEX
  5
D4
  8
OUTSIDE
 10
297.0174999999997
 20
2351.017499999999
 30
0.0
 42
-0.414213562373071
  0
VERTEX
  5
D5
  8
OUTSIDE
 10
293.8424999999996
 20
2347.842499999999
 30
0.0
  0
VERTEX
  5
D6
  8
OUTSIDE
 10
275.8424999999996
 20
2347.842499999999
 30
0.0
 42
-0.414213562373071
  0
VERTEX
  5
D7
  8
OUTSIDE
 10
272.6674999999996
 20
2351.017499999999
 30
0.0
 42
-0.414213562373071
  0
VERTEX
  5
D8
  8
OUTSIDE
 10
275.8424999999996
 20
2354.192499999999
 30
0.0
  0
VERTEX
  5
D9
  8
OUTSIDE
 10
275.8424999999996
 20
2388.842499999999
 30
0.0
  0
VERTEX
  5
DA
  8
OUTSIDE
 10
241.1924999999995
 20
2388.842499999999
 30
0.0
 42
-1.0
  0
VERTEX
  5
DB
  8
OUTSIDE
 10
234.8424999999996
 20
2388.842499999999
 30
0.0
  0
VERTEX
  5
DC
  8
OUTSIDE
 10
234.8424999999996
 20
2403.667499999999
 30
0.0
 42
0.4142135623730963
  0
VERTEX
  5
DD
  8
OUTSIDE
 10
231.6674999999997
 20
2406.842499999999
 30
0.0
  0
VERTEX
  5
DE
  8
OUTSIDE
 10
201.5091666666663
 20
2406.8425
 30
0.0
  0
VERTEX
  5
DF
  8
OUTSIDE
 10
118.1758333333321
 20
2406.8425
 30
0.0
  0
VERTEX
  5
E0
  8
OUTSIDE
 10
34.84249999999906
 20
2406.8425
 30
0.0
  0
VERTEX
  5
E1
  8
OUTSIDE
 10
34.84249999999952
 20
2066.684166666666
 30
0.0
 42
0.4142135623730351
  0
VERTEX
  5
E2
  8
OUTSIDE
 10
38.01750000000015
 20
2063.509166666666
 30
0.0
  0
VERTEX
  5
E3
  8
OUTSIDE
 10
52.8425000000002
 20
2063.509166666666
 30
0.0
 42
-1.0
  0
VERTEX
  5
E4
  8
OUTSIDE
 10
52.8425000000002
 20
2057.159166666666
 30
0.0
  0
VERTEX
  5
E5
  8
OUTSIDE
 10
52.8425000000002
 20
2022.509166666666
 30
0.0
  0
VERTEX
  5
E6
  8
OUTSIDE
 10
87.49250000000006
 20
2022.509166666666
 30
0.0
 42
-1.0
  0
VERTEX
  5
E7
  8
OUTSIDE
 10
93.84249999999997
 20
2022.509166666666
 30
0.0
  0
VERTEX
  5
E8
  8
OUTSIDE
 10
93.84249999999997
 20
2004.509166666666
 30
0.0
 42
-0.4142135623731426
  0
VERTEX
  5
E9
  8
OUTSIDE
 10
90.66750000000002
 20
2001.334166666666
 30
0.0
 42
-0.4142135623731425
  0
VERTEX
  5
EA
  8
OUTSIDE
 10
87.49250000000006
 20
2004.509166666666
 30
0.0
  0
VERTEX
  5
EB
  8
OUTSIDE
 10
52.8425000000002
 20
2004.509166666666
 30
0.0
  0
VERTEX
  5
EC
  8
OUTSIDE
 10
52.8425000000002
 20
1969.859166666666
 30
0.0
 42
-1.0
  0
VERTEX
  5
ED
  8
OUTSIDE
 10
52.8425000000002
 20
1963.509166666666
 30
0.0
  0
VERTEX
  5
EE
  8
OUTSIDE
 10
38.01750000000015
 20
1963.509166666666
 30
0.0
 42
0.4142135623730963
  0
VERTEX
  5
EF
  8
OUTSIDE
 10
34.84249999999952
 20
1960.334166666666
 30
0.0
  0
VERTEX
  5
F0
  8
OUTSIDE
 10
34.84249999999952
 20
1673.350833333333
 30
0.0
 42
0.414213562373091
  0
VERTEX
  5
F1
  8
OUTSIDE
 10
38.01750000000015
 20
1670.175833333333
 30
0.0
  0
VERTEX
  5
F2
  8
OUTSIDE
 10
52.8425000000002
 20
1670.175833333333
 30
0.0
 42
-0.999999999999982
  0
VERTEX
  5
F3
  8
OUTSIDE
 10
52.8425000000002
 20
1663.825833333333
 30
0.0
  0
VERTEX
  5
F4
  8
OUTSIDE
 10
52.8425000000002
 20
1629.175833333333
 30
0.0
  0
VERTEX
  5
F5
  8
OUTSIDE
 10
87.49250000000006
 20
1629.175833333333
 30
0.0
 42
-0.4142135623731194
  0
VERTEX
  5
F6
  8
OUTSIDE
 10
90.66750000000002
 20
1632.350833333333
 30
0.0
 42
-0.4142135623731194
  0
VERTEX
  5
F7
  8
OUTSIDE
 10
93.84249999999997
 20
1629.175833333333
 30
0.0
  0
VERTEX
  5
F8
  8
OUTSIDE
 10
93.84249999999997
 20
1611.175833333333
 30
0.0
 42
-0.4142135623731194
  0
VERTEX
  5
F9
  8
OUTSIDE
 10
90.66750000000002
 20
1608.000833333333
 30
0.0
 42
-0.4142135623731194
  0
VERTEX
  5
FA
  8
OUTSIDE
 10
87.49250000000006
 20
1611.175833333333
 30
0.0
  0
VERTEX
  5
FB
  8
OUTSIDE
 10
52.8425000000002
 20
1611.175833333333
 30
0.0
  0
VERTEX
  5
FC
  8
OUTSIDE
 10
52.8425000000002
 20
1576.525833333333
 30
0.0
 42
-0.999999999999982
  0
VERTEX
  5
FD
  8
OUTSIDE
 10
52.8425000000002
 20
1570.175833333333
 30
0.0
  0
VERTEX
  5
FE
  8
OUTSIDE
 10
38.01750000000015
 20
1570.175833333333
 30
0.0
 42
0.4142135623730456
  0
VERTEX
  5
FF
  8
OUTSIDE
 10
34.84249999999952
 20
1567.000833333333
 30
0.0
  0
VERTEX
  5
100
  8
OUTSIDE
 10
34.84249999999906
 20
1226.8425
 30
0.0
  0
VERTEX
  5
101
  8
OUTSIDE
 10
118.1758333333321
 20
1226.842499999999
 30
0.0
  0
VERTEX
  5
102
  8
OUTSIDE
 10
201.5091666666661
 20
1226.842499999999
 30
0.0
  0
VERTEX
  5
103
  8
OUTSIDE
 10
231.6674999999996
 20
1226.8425
 30
0.0
 42
0.4142135623730713
  0
VERTEX
  5
104
  8
OUTSIDE
 10
234.8424999999995
 20
1230.017499999999
 30
0.0
  0
VERTEX
  5
105
  8
OUTSIDE
 10
234.8424999999995
 20
1244.8425
 30
0.0
 42
-0.414213562373095
  0
VERTEX
  5
106
  8
OUTSIDE
 10
238.0174999999995
 20
1248.017499999999
 30
0.0
 42
-0.4142135623730951
  0
VERTEX
  5
107
  8
OUTSIDE
 10
241.1924999999994
 20
1244.8425
 30
0.0
  0
VERTEX
  5
108
  8
OUTSIDE
 10
275.8424999999997
 20
1244.8425
 30
0.0
  0
VERTEX
  5
109
  8
OUTSIDE
 10
275.8424999999996
 20
1279.492499999999
 30
0.0
 42
-0.4142135623730865
  0
VERTEX
  5
10A
  8
OUTSIDE
 10
272.6674999999994
 20
1282.667499999999
 30
0.0
 42
-0.4142135623730865
  0
VERTEX
  5
10B
  8
OUTSIDE
 10
275.8424999999996
 20
1285.8425
 30
0.0
  0
VERTEX
  5
10C
  8
OUTSIDE
 10
293.8424999999996
 20
1285.8425
 30
0.0
 42
-0.4142135623730775
  0
VERTEX
  5
10D
  8
OUTSIDE
 10
297.0174999999997
 20
1282.667499999999
 30
0.0
 42
-0.4142135623730775
  0
VERTEX
  5
10E
  8
OUTSIDE
 10
293.8424999999996
 20
1279.492499999999
 30
0.0
  0
VERTEX
  5
10F
  8
OUTSIDE
 10
293.8424999999996
 20
1244.8425
 30
0.0
  0
VERTEX
  5
110
  8
OUTSIDE
 10
328.4924999999996
 20
1244.8425
 30
0.0
 42
-0.4142135623730956
  0
VERTEX
  5
111
  8
OUTSIDE
 10
331.6674999999996
 20
1248.017499999999
 30
0.0
 42
-0.4142135623730956
  0
VERTEX
  5
112
  8
OUTSIDE
 10
334.8424999999995
 20
1244.8425
 30
0.0
  0
VERTEX
  5
113
  8
OUTSIDE
 10
334.8424999999995
 20
1230.017499999999
 30
0.0
 42
0.4142135623730837
  0
VERTEX
  5
114
  8
OUTSIDE
 10
338.0174999999996
 20
1226.8425
 30
0.0
  0
VERTEX
  5
115
  8
OUTSIDE
 10
481.6674999999996
 20
1226.8425
 30
0.0
 42
0.4142135623731301
  0
VERTEX
  5
116
  8
OUTSIDE
 10
484.8424999999995
 20
1230.017499999999
 30
0.0
  0
VERTEX
  5
117
  8
OUTSIDE
 10
484.8424999999995
 20
1244.842499999999
 30
0.0
 42
-0.4142135623730941
  0
VERTEX
  5
118
  8
OUTSIDE
 10
488.0174999999995
 20
1248.017499999999
 30
0.0
 42
-0.4142135623730941
  0
VERTEX
  5
119
  8
OUTSIDE
 10
491.1924999999994
 20
1244.842499999999
 30
0.0
  0
VERTEX
  5
11A
  8
OUTSIDE
 10
525.8424999999996
 20
1244.842499999999
 30
0.0
  0
VERTEX
  5
11B
  8
OUTSIDE
 10
525.8424999999996
 20
1279.492499999999
 30
0.0
 42
-0.4142135623730775
  0
VERTEX
  5
11C
  8
OUTSIDE
 10
522.6674999999996
 20
1282.667499999999
 30
0.0
 42
-0.4142135623730775
  0
VERTEX
  5
11D
  8
OUTSIDE
 10
525.8424999999996
 20
1285.8425
 30
0.0
  0
VERTEX
  5
11E
  8
OUTSIDE
 10
543.8424999999995
 20
1285.8425
 30
0.0
 42
-0.4142135623730865
  0
VERTEX
  5
11F
  8
OUTSIDE
 10
547.0174999999996
 20
1282.667499999999
 30
0.0
 42
-0.4142135623730865
  0
VERTEX
  5
120
  8
OUTSIDE
 10
543.8424999999995
 20
1279.492499999999
 30
0.0
  0
VERTEX
  5
121
  8
OUTSIDE
 10
543.8424999999995
 20
1244.842499999999
 30
0.0
  0
VERTEX
  5
122
  8
OUTSIDE
 10
578.4924999999995
 20
1244.842499999999
 30
0.0
 42
-0.414213562373095
  0
VERTEX
  5
123
  8
OUTSIDE
 10
581.6674999999994
 20
1248.017499999999
 30
0.0
 42
-0.4142135623730951
  0
VERTEX
  5
124
  8
OUTSIDE
 10
584.8424999999995
 20
1244.842499999999
 30
0.0
  0
VERTEX
  5
125
  8
OUTSIDE
 10
584.8424999999995
 20
1230.017499999999
 30
0.0
 42
0.4142135623730963
  0
SEQEND
  5
26F
  8
OUTSIDE
  0
POLYLINE
  5
6E
  8
OUTSIDE
 66
     1
 10
0.0
 20
0.0
 30
0.0
 70
     1
  0
VERTEX
  5
126
  8
OUTSIDE
 10
606.9670763948741
 20
395.7856483126102
 30
0.0
  0
VERTEX
  5
127
  8
OUTSIDE
 10
620.5123036733988
 20
395.7856483126102
 30
0.0
 42
-1.0
  0
VERTEX
  5
128
  8
OUTSIDE
 10
624.9670763948741
 20
391.330875591135
 30
0.0
  0
VERTEX
  5
129
  8
OUTSIDE
 10
624.9670763948741
 20
304.7857531021292
 30
0.0
  0
VERTEX
  5
12A
  8
OUTSIDE
 10
845.512303673399
 20
304.7857531021292
 30
0.0
 42
-1.0
  0
VERTEX
  5
12B
  8
OUTSIDE
 10
849.9670763948742
 20
300.330980380654
 30
0.0
  0
VERTEX
  5
12C
  8
OUTSIDE
 10
849.9670763948742
 20
291.2405258236045
 30
0.0
 42
-1.0
  0
VERTEX
  5
12D
  8
OUTSIDE
 10
845.512303673399
 20
286.7857531021292
 30
0.0
  0
VERTEX
  5
12E
  8
OUTSIDE
 10
624.9670763948741
 20
286.7857531021293
 30
0.0
  0
VERTEX
  5
12F
  8
OUTSIDE
 10
624.9670763948741
 20
245.7856483126103
 30
0.0
  0
VERTEX
  5
130
  8
OUTSIDE
 10
1075.111844805807
 20
245.7857531021291
 30
0.0
  0
VERTEX
  5
131
  8
OUTSIDE
 10
1074.967076394874
 20
345.7856483126102
 30
0.0
  0
VERTEX
  5
132
  8
OUTSIDE
 10
724.9670763948742
 20
345.7856483126104
 30
0.0
  0
VERTEX
  5
133
  8
OUTSIDE
 10
724.9670763948742
 20
595.7856483126104
 30
0.0
  0
VERTEX
  5
134
  8
OUTSIDE
 10
1074.967076394874
 20
595.7856483126102
 30
0.0
  0
VERTEX
  5
135
  8
OUTSIDE
 10
1074.967076394874
 20
695.7856483126102
 30
0.0
  0
VERTEX
  5
136
  8
OUTSIDE
 10
624.9670763948741
 20
695.7856483126102
 30
0.0
  0
VERTEX
  5
137
  8
OUTSIDE
 10
624.9670763948741
 20
654.7856483126104
 30
0.0
  0
VERTEX
  5
138
  8
OUTSIDE
 10
845.512303673399
 20
654.7856483126102
 30
0.0
 42
-1.0
  0
VERTEX
  5
139
  8
OUTSIDE
 10
849.9670763948742
 20
650.3308755911349
 30
0.0
  0
VERTEX
  5
13A
  8
OUTSIDE
 10
849.9670763948742
 20
641.2404210340857
 30
0.0
 42
-1.0
  0
VERTEX
  5
13B
  8
OUTSIDE
 10
845.512303673399
 20
636.7856483126104
 30
0.0
  0
VERTEX
  5
13C
  8
OUTSIDE
 10
624.9670763948741
 20
636.7856483126104
 30
0.0
  0
VERTEX
  5
13D
  8
OUTSIDE
 10
624.9670763948741
 20
550.2404210340856
 30
0.0
 42
-1.0
  0
VERTEX
  5
13E
  8
OUTSIDE
 10
620.5123036733988
 20
545.7856483126103
 30
0.0
  0
VERTEX
  5
13F
  8
OUTSIDE
 10
606.9670763948741
 20
545.7856483126103
 30
0.0
  0
SEQEND
  5
270
  8
OUTSIDE
  0
POLYLINE
  5
6F
  8
OUTSIDE
 66
     1
 10
0.0
 20
0.0
 30
0.0
 70
     1
  0
VERTEX
  5
140
  8
OUTSIDE
 10
32.40548803603715
 20
246.7402824094117
 30
0.0
  0
VERTEX
  5
141
  8
OUTSIDE
 10
252.950715314562
 20
246.7402824094116
 30
0.0
 42
1.0
  0
VERTEX
  5
142
  8
OUTSIDE
 10
257.4054880360373
 20
251.1950551308869
 30
0.0
  0
VERTEX
  5
143
  8
OUTSIDE
 10
257.4054880360373
 20
260.2855096879364
 30
0.0
 42
1.0
  0
VERTEX
  5
144
  8
OUTSIDE
 10
252.950715314562
 20
264.7402824094116
 30
0.0
  0
VERTEX
  5
145
  8
OUTSIDE
 10
32.40548803603715
 20
264.7402824094116
 30
0.0
  0
VERTEX
  5
146
  8
OUTSIDE
 10
32.40548803603715
 20
351.2854048984174
 30
0.0
 42
1.0
  0
VERTEX
  5
147
  8
OUTSIDE
 10
27.9507153145619
 20
355.7401776198927
 30
0.0
  0
VERTEX
  5
148
  8
OUTSIDE
 10
14.40548803603715
 20
355.7401776198927
 30
0.0
  0
VERTEX
  5
149
  8
OUTSIDE
 10
14.40548803603715
 20
505.7401776198927
 30
0.0
  0
VERTEX
  5
14A
  8
OUTSIDE
 10
27.9507153145619
 20
505.7401776198927
 30
0.0
 42
1.0
  0
VERTEX
  5
14B
  8
OUTSIDE
 10
32.40548803603715
 20
510.194950341368
 30
0.0
  0
VERTEX
  5
14C
  8
OUTSIDE
 10
32.40548803603715
 20
596.7401776198928
 30
0.0
  0
VERTEX
  5
14D
  8
OUTSIDE
 10
252.950715314562
 20
596.7401776198928
 30
0.0
 42
1.0
  0
VERTEX
  5
14E
  8
OUTSIDE
 10
257.4054880360373
 20
601.1949503413681
 30
0.0
  0
VERTEX
  5
14F
  8
OUTSIDE
 10
257.4054880360373
 20
610.2854048984174
 30
0.0
 42
1.0
  0
VERTEX
  5
150
  8
OUTSIDE
 10
252.950715314562
 20
614.7401776198926
 30
0.0
  0
VERTEX
  5
151
  8
OUTSIDE
 10
32.40548803603715
 20
614.7401776198928
 30
0.0
  0
VERTEX
  5
152
  8
OUTSIDE
 10
32.40548803603715
 20
655.7401776198926
 30
0.0
  0
VERTEX
  5
153
  8
OUTSIDE
 10
482.4054880360372
 20
655.7401776198926
 30
0.0
  0
VERTEX
  5
154
  8
OUTSIDE
 10
482.4054880360372
 20
555.7401776198926
 30
0.0
  0
VERTEX
  5
155
  8
OUTSIDE
 10
132.4054880360372
 20
555.7401776198928
 30
0.0
  0
VERTEX
  5
156
  8
OUTSIDE
 10
132.4054880360372
 20
305.7401776198928
 30
0.0
  0
VERTEX
  5
157
  8
OUTSIDE
 10
482.4054880360372
 20
305.7401776198927
 30
0.0
  0
VERTEX
  5
158
  8
OUTSIDE
 10
482.5502564469697
 20
205.7402824094116
 30
0.0
  0
VERTEX
  5
159
  8
OUTSIDE
 10
32.40548803603715
 20
205.7401776198927
 30
0.0
  0
SEQEND
  5
271
  8
OUTSIDE
  0
POLYLINE
  5
70
  8
OUTSIDE
 66
     1
 10
0.0
 20
0.0
 30
0.0
 70
     1
  0
VERTEX
  5
15A
  8
OUTSIDE
 10
738.0546580354719
 20
501.8846554236245
 30
0.0
  0
VERTEX
  5
15B
  8
OUTSIDE
 10
958.5702077586566
 20
501.8846554236243
 30
0.0
 42
-1.0
  0
VERTEX
  5
15C
  8
OUTSIDE
 10
963.0249804801318
 20
497.4298827021491
 30
0.0
  0
VERTEX
  5
15D
  8
OUTSIDE
 10
963.0249804801318
 20
488.3394281450996
 30
0.0
 42
-1.0
  0
VERTEX
  5
15E
  8
OUTSIDE
 10
958.5702077586566
 20
483.8846554236243
 30
0.0
  0
VERTEX
  5
15F
  8
OUTSIDE
 10
738.067687206109
 20
483.8846554236245
 30
0.0
  0
VERTEX
  5
160
  8
OUTSIDE
 10
738.1697488910644
 20
442.8847602131434
 30
0.0
  0
VERTEX
  5
161
  8
OUTSIDE
 10
1088.169748891064
 20
442.8847602131432
 30
0.0
  0
VERTEX
  5
162
  8
OUTSIDE
 10
1088.169748891064
 20
192.8847602131432
 30
0.0
  0
VERTEX
  5
163
  8
OUTSIDE
 10
738.1697488910644
 20
192.8847602131434
 30
0.0
  0
VERTEX
  5
164
  8
OUTSIDE
 10
738.1697488910644
 20
151.8847602131432
 30
0.0
  0
VERTEX
  5
165
  8
OUTSIDE
 10
958.7149761695891
 20
151.8847602131432
 30
0.0
 42
-1.0
  0
VERTEX
  5
166
  8
OUTSIDE
 10
963.1697488910644
 20
147.429987491668
 30
0.0
  0
VERTEX
  5
167
  8
OUTSIDE
 10
963.1697488910644
 20
138.3395329346185
 30
0.0
 42
-1.0
  0
VERTEX
  5
168
  8
OUTSIDE
 10
958.7149761695891
 20
133.8847602131432
 30
0.0
  0
VERTEX
  5
169
  8
OUTSIDE
 10
738.1697488910644
 20
133.8847602131432
 30
0.0
  0
VERTEX
  5
16A
  8
OUTSIDE
 10
738.1697488910644
 20
92.88476021314324
 30
0.0
  0
VERTEX
  5
16B
  8
OUTSIDE
 10
1188.169748891064
 20
92.88476021314301
 30
0.0
  0
VERTEX
  5
16C
  8
OUTSIDE
 10
1188.169748891064
 20
238.429987491668
 30
0.0
 42
-1.0
  0
VERTEX
  5
16D
  8
OUTSIDE
 10
1192.624521612539
 20
242.8847602131432
 30
0.0
  0
VERTEX
  5
16E
  8
OUTSIDE
 10
1206.169748891064
 20
242.8847602131432
 30
0.0
  0
VERTEX
  5
16F
  8
OUTSIDE
 10
1206.169748891064
 20
392.8847602131432
 30
0.0
  0
VERTEX
  5
170
  8
OUTSIDE
 10
1192.624521612539
 20
392.8847602131432
 30
0.0
 42
-1.0
  0
VERTEX
  5
171
  8
OUTSIDE
 10
1188.169748891064
 20
397.3395329346185
 30
0.0
  0
VERTEX
  5
172
  8
OUTSIDE
 10
1188.169748891064
 20
542.8847602131432
 30
0.0
  0
VERTEX
  5
173
  8
OUTSIDE
 10
738.0249804801318
 20
542.8846554236245
 30
0.0
  0
SEQEND
  5
272
  8
OUTSIDE
  0
POLYLINE
  5
71
  8
OUTSIDE
 66
     1
 10
0.0
 20
0.0
 30
0.0
 70
     1
  0
VERTEX
  5
174
  8
OUTSIDE
 10
370.4633921212948
 20
457.3844120094315
 30
0.0
  0
VERTEX
  5
175
  8
OUTSIDE
 10
370.4633921212948
 20
448.293957452382
 30
0.0
 42
-1.0
  0
VERTEX
  5
176
  8
OUTSIDE
 10
366.0086193998196
 20
443.8391847309068
 30
0.0
  0
VERTEX
  5
177
  8
OUTSIDE
 10
145.5060988472721
 20
443.8391847309069
 30
0.0
  0
VERTEX
  5
178
  8
OUTSIDE
 10
145.6081605322274
 20
402.8392895204258
 30
0.0
  0
VERTEX
  5
179
  8
OUTSIDE
 10
495.6081605322274
 20
402.8392895204257
 30
0.0
  0
VERTEX
  5
17A
  8
OUTSIDE
 10
495.6081605322274
 20
152.8392895204257
 30
0.0
  0
VERTEX
  5
17B
  8
OUTSIDE
 10
145.6081605322274
 20
152.8392895204258
 30
0.0
  0
VERTEX
  5
17C
  8
OUTSIDE
 10
145.6081605322274
 20
111.8392895204257
 30
0.0
  0
VERTEX
  5
17D
  8
OUTSIDE
 10
366.1533878107521
 20
111.8392895204257
 30
0.0
 42
-1.0
  0
VERTEX
  5
17E
  8
OUTSIDE
 10
370.6081605322274
 20
107.3845167989504
 30
0.0
  0
VERTEX
  5
17F
  8
OUTSIDE
 10
370.6081605322274
 20
98.29406224190092
 30
0.0
 42
-1.0
  0
VERTEX
  5
180
  8
OUTSIDE
 10
366.1533878107521
 20
93.83928952042567
 30
0.0
  0
VERTEX
  5
181
  8
OUTSIDE
 10
145.6081605322274
 20
93.83928952042567
 30
0.0
  0
VERTEX
  5
182
  8
OUTSIDE
 10
145.6081605322274
 20
52.83928952042567
 30
0.0
  0
VERTEX
  5
183
  8
OUTSIDE
 10
595.6081605322271
 20
52.83928952042544
 30
0.0
  0
VERTEX
  5
184
  8
OUTSIDE
 10
595.6081605322271
 20
198.3845167989504
 30
0.0
 42
-1.0
  0
VERTEX
  5
185
  8
OUTSIDE
 10
600.0629332537023
 20
202.8392895204257
 30
0.0
  0
VERTEX
  5
186
  8
OUTSIDE
 10
613.6081605322271
 20
202.8392895204257
 30
0.0
  0
VERTEX
  5
187
  8
OUTSIDE
 10
613.6081605322271
 20
352.8392895204257
 30
0.0
  0
VERTEX
  5
188
  8
OUTSIDE
 10
600.0629332537023
 20
352.8392895204257
 30
0.0
 42
-1.0
  0
VERTEX
  5
189
  8
OUTSIDE
 10
595.6081605322271
 20
357.2940622419009
 30
0.0
  0
VERTEX
  5
18A
  8
OUTSIDE
 10
595.6081605322271
 20
502.8392895204256
 30
0.0
  0
VERTEX
  5
18B
  8
OUTSIDE
 10
145.4633921212949
 20
502.8391847309069
 30
0.0
  0
VERTEX
  5
18C
  8
OUTSIDE
 10
145.493069676635
 20
461.8391847309069
 30
0.0
  0
VERTEX
  5
18D
  8
OUTSIDE
 10
366.0086193998196
 20
461.8391847309068
 30
0.0
 42
-1.0
  0
SEQEND
  5
273
  8
OUTSIDE
  0
POLYLINE
  5
72
  8
OUTSIDE
 66
     1
 10
0.0
 20
0.0
 30
0.0
 70
     1
  0
VERTEX
  5
18E
  8
OUTSIDE
 10
512.417406749556
 20
748.0832682060401
 30
0.0
  0
VERTEX
  5
18F
  8
OUTSIDE
 10
962.417406749556
 20
748.0832682060401
 30
0.0
  0
VERTEX
  5
190
  8
OUTSIDE
 10
962.417406749556
 20
1198.08326820604
 30
0.0
  0
VERTEX
  5
191
  8
OUTSIDE
 10
512.417406749556
 20
1198.08326820604
 30
0.0
  0
SEQEND
  5
274
  8
OUTSIDE
  0
POLYLINE
  5
73
  8
OUTSIDE
 66
     1
 10
0.0
 20
0.0
 30
0.0
 70
     1
  0
VERTEX
  5
192
  8
OUTSIDE
 10
43.93044780984815
 20
747.799076376555
 30
0.0
  0
VERTEX
  5
193
  8
OUTSIDE
 10
493.9304478098481
 20
747.799076376555
 30
0.0
  0
VERTEX
  5
194
  8
OUTSIDE
 10
493.9304478098481
 20
1197.799076376555
 30
0.0
  0
VERTEX
  5
195
  8
OUTSIDE
 10
43.93044780984815
 20
1197.799076376555
 30
0.0
  0
SEQEND
  5
275
  8
OUTSIDE
  0
POLYLINE
  5
75
  8
INSIDE
 66
     1
 10
0.0
 20
0.0
 30
0.0
 70
     1
  0
VERTEX
  5
196
  8
INSIDE
 10
886.175833333333
 20
2153.620277777778
 30
0.0
 42
1.0
  0
VERTEX
  5
197
  8
INSIDE
 10
886.175833333333
 20
2147.270277777778
 30
0.0
  0
VERTEX
  5
198
  8
INSIDE
 10
886.175833333333
 20
2141.970277777778
 30
0.0
 42
0.999999999999991
  0
VERTEX
  5
199
  8
INSIDE
 10
886.175833333333
 20
2135.620277777778
 30
0.0
  0
VERTEX
  5
19A
  8
INSIDE
 10
969.5091666666663
 20
2135.620277777778
 30
0.0
 42
1.0
  0
VERTEX
  5
19B
  8
INSIDE
 10
969.5091666666663
 20
2141.970277777778
 30
0.0
  0
VERTEX
  5
19C
  8
INSIDE
 10
969.5091666666663
 20
2147.270277777778
 30
0.0
 42
1.0
  0
VERTEX
  5
19D
  8
INSIDE
 10
969.5091666666663
 20
2153.620277777778
 30
0.0
  0
SEQEND
  5
276
  8
INSIDE
  0
POLYLINE
  5
76
  8
INSIDE
 66
     1
 10
0.0
 20
0.0
 30
0.0
 70
     1
  0
VERTEX
  5
19E
  8
INSIDE
 10
886.175833333333
 20
1498.064722222222
 30
0.0
  0
VERTEX
  5
19F
  8
INSIDE
 10
969.5091666666663
 20
1498.064722222222
 30
0.0
 42
-0.4142135623731015
  0
VERTEX
  5
1A0
  8
INSIDE
 10
972.6841666666662
 20
1494.889722222222
 30
0.0
 42
-0.4142135623731016
  0
VERTEX
  5
1A1
  8
INSIDE
 10
969.5091666666663
 20
1491.714722222222
 30
0.0
  0
VERTEX
  5
1A2
  8
INSIDE
 10
969.5091666666663
 20
1486.414722222223
 30
0.0
 42
-0.9999999999999822
  0
VERTEX
  5
1A3
  8
INSIDE
 10
969.5091666666663
 20
1480.064722222222
 30
0.0
  0
VERTEX
  5
1A4
  8
INSIDE
 10
886.175833333333
 20
1480.064722222222
 30
0.0
 42
-0.9999999999999822
  0
VERTEX
  5
1A5
  8
INSIDE
 10
886.175833333333
 20
1486.414722222223
 30
0.0
  0
VERTEX
  5
1A6
  8
INSIDE
 10
886.175833333333
 20
1491.714722222222
 30
0.0
 42
-0.9999999999999822
  0
SEQEND
  5
277
  8
INSIDE
  0
POLYLINE
  5
77
  8
INSIDE
 66
     1
 10
0.0
 20
0.0
 30
0.0
 70
     1
  0
VERTEX
  5
1A7
  8
INSIDE
 10
525.8424999999996
 20
1570.175833333333
 30
0.0
  0
VERTEX
  5
1A8
  8
INSIDE
 10
543.8424999999995
 20
1570.175833333333
 30
0.0
 42
0.999999999999982
  0
VERTEX
  5
1A9
  8
INSIDE
 10
543.8424999999995
 20
1576.525833333333
 30
0.0
  0
VERTEX
  5
1AA
  8
INSIDE
 10
543.8424999999995
 20
1611.175833333333
 30
0.0
  0
VERTEX
  5
1AB
  8
INSIDE
 10
578.4924999999995
 20
1611.175833333333
 30
0.0
 42
0.4142135623731016
  0
VERTEX
  5
1AC
  8
INSIDE
 10
581.6674999999994
 20
1608.000833333333
 30
0.0
 42
0.4142135623731015
  0
VERTEX
  5
1AD
  8
INSIDE
 10
584.8424999999995
 20
1611.175833333333
 30
0.0
  0
VERTEX
  5
1AE
  8
INSIDE
 10
584.8424999999995
 20
1629.175833333333
 30
0.0
 42
0.4142135623731016
  0
VERTEX
  5
1AF
  8
INSIDE
 10
581.6674999999994
 20
1632.350833333333
 30
0.0
 42
0.4142135623731015
  0
VERTEX
  5
1B0
  8
INSIDE
 10
578.4924999999995
 20
1629.175833333333
 30
0.0
  0
VERTEX
  5
1B1
  8
INSIDE
 10
543.8424999999995
 20
1629.175833333333
 30
0.0
  0
VERTEX
  5
1B2
  8
INSIDE
 10
543.8424999999995
 20
1663.825833333333
 30
0.0
 42
0.999999999999982
  0
VERTEX
  5
1B3
  8
INSIDE
 10
543.8424999999995
 20
1670.175833333333
 30
0.0
  0
VERTEX
  5
1B4
  8
INSIDE
 10
525.8424999999994
 20
1670.175833333333
 30
0.0
 42
0.999999999999982
  0
VERTEX
  5
1B5
  8
INSIDE
 10
525.8424999999992
 20
1663.825833333333
 30
0.0
  0
VERTEX
  5
1B6
  8
INSIDE
 10
525.8424999999996
 20
1629.175833333333
 30
0.0
  0
VERTEX
  5
1B7
  8
INSIDE
 10
491.1924999999993
 20
1629.175833333333
 30
0.0
 42
0.4142135623730784
  0
VERTEX
  5
1B8
  8
INSIDE
 10
488.0174999999995
 20
1632.350833333333
 30
0.0
 42
0.4142135623731067
  0
VERTEX
  5
1B9
  8
INSIDE
 10
484.8424999999995
 20
1629.175833333333
 30
0.0
  0
VERTEX
  5
1BA
  8
INSIDE
 10
484.8424999999995
 20
1611.175833333333
 30
0.0
 42
0.4142135623731016
  0
VERTEX
  5
1BB
  8
INSIDE
 10
488.0174999999992
 20
1608.000833333333
 30
0.0
 42
0.4142135623731015
  0
VERTEX
  5
1BC
  8
INSIDE
 10
491.1924999999992
 20
1611.175833333333
 30
0.0
  0
VERTEX
  5
1BD
  8
INSIDE
 10
525.8424999999996
 20
1611.175833333333
 30
0.0
  0
VERTEX
  5
1BE
  8
INSIDE
 10
525.8424999999992
 20
1576.525833333333
 30
0.0
 42
0.999999999999982
  0
SEQEND
  5
278
  8
INSIDE
  0
POLYLINE
  5
78
  8
INSIDE
 66
     1
 10
0.0
 20
0.0
 30
0.0
 70
     1
  0
VERTEX
  5
1BF
  8
INSIDE
 10
584.8424999999994
 20
2004.509166666666
 30
0.0
 42
-1.0
  0
VERTEX
  5
1C0
  8
INSIDE
 10
578.4924999999995
 20
2004.509166666666
 30
0.0
  0
VERTEX
  5
1C1
  8
INSIDE
 10
543.8424999999995
 20
2004.509166666666
 30
0.0
  0
VERTEX
  5
1C2
  8
INSIDE
 10
543.8424999999995
 20
1969.859166666666
 30
0.0
 42
-1.0
  0
VERTEX
  5
1C3
  8
INSIDE
 10
543.8424999999995
 20
1963.509166666666
 30
0.0
  0
VERTEX
  5
1C4
  8
INSIDE
 10
525.8424999999995
 20
1963.509166666666
 30
0.0
 42
-1.0
  0
VERTEX
  5
1C5
  8
INSIDE
 10
525.8424999999992
 20
1969.859166666666
 30
0.0
  0
VERTEX
  5
1C6
  8
INSIDE
 10
525.8424999999996
 20
2004.509166666666
 30
0.0
  0
VERTEX
  5
1C7
  8
INSIDE
 10
491.1924999999992
 20
2004.509166666666
 30
0.0
 42
-1.0
  0
VERTEX
  5
1C8
  8
INSIDE
 10
484.8424999999994
 20
2004.509166666666
 30
0.0
  0
VERTEX
  5
1C9
  8
INSIDE
 10
484.8424999999995
 20
2022.509166666666
 30
0.0
 42
-1.0
  0
VERTEX
  5
1CA
  8
INSIDE
 10
491.1924999999992
 20
2022.509166666666
 30
0.0
  0
VERTEX
  5
1CB
  8
INSIDE
 10
525.8424999999996
 20
2022.509166666666
 30
0.0
  0
VERTEX
  5
1CC
  8
INSIDE
 10
525.8424999999992
 20
2057.159166666666
 30
0.0
 42
-1.0
  0
VERTEX
  5
1CD
  8
INSIDE
 10
525.8424999999994
 20
2063.509166666666
 30
0.0
  0
VERTEX
  5
1CE
  8
INSIDE
 10
543.8424999999995
 20
2063.509166666666
 30
0.0
 42
-1.0
  0
VERTEX
  5
1CF
  8
INSIDE
 10
543.8424999999995
 20
2057.159166666666
 30
0.0
  0
VERTEX
  5
1D0
  8
INSIDE
 10
543.8424999999995
 20
2022.509166666666
 30
0.0
  0
VERTEX
  5
1D1
  8
INSIDE
 10
578.4924999999995
 20
2022.509166666666
 30
0.0
 42
-1.0
  0
VERTEX
  5
1D2
  8
INSIDE
 10
584.8424999999995
 20
2022.509166666666
 30
0.0
  0
SEQEND
  5
279
  8
INSIDE
  0
POLYLINE
  5
79
  8
INSIDE
 66
     1
 10
0.0
 20
0.0
 30
0.0
 70
     1
  0
VERTEX
  5
1D3
  8
INSIDE
 10
234.8424999999995
 20
1611.175833333333
 30
0.0
 42
0.4142135623731016
  0
VERTEX
  5
1D4
  8
INSIDE
 10
238.0174999999995
 20
1608.000833333333
 30
0.0
 42
0.4142135623731015
  0
VERTEX
  5
1D5
  8
INSIDE
 10
241.1924999999994
 20
1611.175833333333
 30
0.0
  0
VERTEX
  5
1D6
  8
INSIDE
 10
275.8424999999995
 20
1611.175833333333
 30
0.0
  0
VERTEX
  5
1D7
  8
INSIDE
 10
275.8424999999995
 20
1576.525833333333
 30
0.0
 42
0.999999999999982
  0
VERTEX
  5
1D8
  8
INSIDE
 10
275.8424999999995
 20
1570.175833333333
 30
0.0
  0
VERTEX
  5
1D9
  8
INSIDE
 10
293.8424999999997
 20
1570.175833333333
 30
0.0
 42
0.999999999999982
  0
VERTEX
  5
1DA
  8
INSIDE
 10
293.8424999999997
 20
1576.525833333333
 30
0.0
  0
VERTEX
  5
1DB
  8
INSIDE
 10
293.8424999999996
 20
1611.175833333333
 30
0.0
  0
VERTEX
  5
1DC
  8
INSIDE
 10
328.4924999999998
 20
1611.175833333333
 30
0.0
 42
0.9999999999999822
  0
VERTEX
  5
1DD
  8
INSIDE
 10
334.8424999999997
 20
1611.175833333333
 30
0.0
  0
VERTEX
  5
1DE
  8
INSIDE
 10
334.8424999999996
 20
1629.175833333333
 30
0.0
 42
0.4142135623731016
  0
VERTEX
  5
1DF
  8
INSIDE
 10
331.6674999999998
 20
1632.350833333333
 30
0.0
 42
0.4142135623731015
  0
VERTEX
  5
1E0
  8
INSIDE
 10
328.4924999999998
 20
1629.175833333333
 30
0.0
  0
VERTEX
  5
1E1
  8
INSIDE
 10
293.8424999999996
 20
1629.175833333333
 30
0.0
  0
VERTEX
  5
1E2
  8
INSIDE
 10
293.8424999999997
 20
1663.825833333333
 30
0.0
 42
0.999999999999982
  0
VERTEX
  5
1E3
  8
INSIDE
 10
293.8424999999997
 20
1670.175833333333
 30
0.0
  0
VERTEX
  5
1E4
  8
INSIDE
 10
275.8424999999995
 20
1670.175833333333
 30
0.0
 42
0.999999999999982
  0
VERTEX
  5
1E5
  8
INSIDE
 10
275.8424999999995
 20
1663.825833333333
 30
0.0
  0
VERTEX
  5
1E6
  8
INSIDE
 10
275.8424999999995
 20
1629.175833333333
 30
0.0
  0
VERTEX
  5
1E7
  8
INSIDE
 10
241.1924999999994
 20
1629.175833333333
 30
0.0
 42
0.4142135623730964
  0
VERTEX
  5
1E8
  8
INSIDE
 10
238.0174999999996
 20
1632.350833333333
 30
0.0
 42
0.4142135623730889
  0
VERTEX
  5
1E9
  8
INSIDE
 10
234.8424999999995
 20
1629.175833333333
 30
0.0
  0
SEQEND
  5
27A
  8
INSIDE
  0
POLYLINE
  5
7A
  8
INSIDE
 66
     1
 10
0.0
 20
0.0
 30
0.0
 70
     1
  0
VERTEX
  5
1EA
  8
INSIDE
 10
293.8424999999995
 20
1963.509166666666
 30
0.0
  0
VERTEX
  5
1EB
  8
INSIDE
 10
275.8424999999995
 20
1963.509166666666
 30
0.0
 42
-1.0
  0
VERTEX
  5
1EC
  8
INSIDE
 10
275.8424999999995
 20
1969.859166666666
 30
0.0
  0
VERTEX
  5
1ED
  8
INSIDE
 10
275.8424999999995
 20
2004.509166666666
 30
0.0
  0
VERTEX
  5
1EE
  8
INSIDE
 10
241.1924999999994
 20
2004.509166666666
 30
0.0
 42
-1.0
  0
VERTEX
  5
1EF
  8
INSIDE
 10
234.8424999999995
 20
2004.509166666666
 30
0.0
  0
VERTEX
  5
1F0
  8
INSIDE
 10
234.8424999999995
 20
2022.509166666666
 30
0.0
 42
-1.0
  0
VERTEX
  5
1F1
  8
INSIDE
 10
241.1924999999994
 20
2022.509166666666
 30
0.0
  0
VERTEX
  5
1F2
  8
INSIDE
 10
275.8424999999995
 20
2022.509166666666
 30
0.0
  0
VERTEX
  5
1F3
  8
INSIDE
 10
275.8424999999995
 20
2057.159166666666
 30
0.0
 42
-1.0
  0
VERTEX
  5
1F4
  8
INSIDE
 10
275.8424999999995
 20
2063.509166666666
 30
0.0
  0
VERTEX
  5
1F5
  8
INSIDE
 10
293.8424999999997
 20
2063.509166666666
 30
0.0
 42
-1.0
  0
VERTEX
  5
1F6
  8
INSIDE
 10
293.8424999999997
 20
2057.159166666666
 30
0.0
  0
VERTEX
  5
1F7
  8
INSIDE
 10
293.8424999999996
 20
2022.509166666666
 30
0.0
  0
VERTEX
  5
1F8
  8
INSIDE
 10
328.4924999999998
 20
2022.509166666666
 30
0.0
 42
-1.0
  0
VERTEX
  5
1F9
  8
INSIDE
 10
334.8424999999996
 20
2022.509166666666
 30
0.0
  0
VERTEX
  5
1FA
  8
INSIDE
 10
334.8424999999996
 20
2004.509166666666
 30
0.0
 42
-1.0
  0
VERTEX
  5
1FB
  8
INSIDE
 10
328.4924999999998
 20
2004.509166666666
 30
0.0
  0
VERTEX
  5
1FC
  8
INSIDE
 10
293.8424999999996
 20
2004.509166666666
 30
0.0
  0
VERTEX
  5
1FD
  8
INSIDE
 10
293.8424999999997
 20
1969.859166666666
 30
0.0
 42
-1.0
  0
SEQEND
  5
27B
  8
INSIDE
  0
POLYLINE
  5
7B
  8
INSIDE
 66
     1
 10
0.0
 20
0.0
 30
0.0
 70
     1
  0
VERTEX
  5
1FE
  8
INSIDE
 10
118.1758333333321
 20
1480.064722222221
 30
0.0
 42
-0.999999999999982
  0
VERTEX
  5
1FF
  8
INSIDE
 10
118.1758333333321
 20
1486.414722222221
 30
0.0
  0
VERTEX
  5
200
  8
INSIDE
 10
118.1758333333321
 20
1491.714722222221
 30
0.0
 42
-0.999999999999982
  0
VERTEX
  5
201
  8
INSIDE
 10
118.1758333333321
 20
1498.064722222221
 30
0.0
  0
VERTEX
  5
202
  8
INSIDE
 10
201.5091666666661
 20
1498.064722222221
 30
0.0
 42
-0.999999999999982
  0
VERTEX
  5
203
  8
INSIDE
 10
201.5091666666661
 20
1491.714722222221
 30
0.0
  0
VERTEX
  5
204
  8
INSIDE
 10
201.5091666666661
 20
1486.414722222221
 30
0.0
 42
-0.4142135623731299
  0
VERTEX
  5
205
  8
INSIDE
 10
204.6841666666662
 20
1483.239722222221
 30
0.0
 42
-0.4142135623731299
  0
VERTEX
  5
206
  8
INSIDE
 10
201.5091666666661
 20
1480.064722222221
 30
0.0
  0
SEQEND
  5
27C
  8
INSIDE
  0
POLYLINE
  5
7C
  8
INSIDE
 66
     1
 10
0.0
 20
0.0
 30
0.0
 70
     1
  0
VERTEX
  5
207
  8
INSIDE
 10
118.1758333333321
 20
2135.620277777778
 30
0.0
 42
-1.0
  0
VERTEX
  5
208
  8
INSIDE
 10
118.1758333333321
 20
2141.970277777777
 30
0.0
  0
VERTEX
  5
209
  8
INSIDE
 10
118.1758333333321
 20
2147.270277777777
 30
0.0
 42
-0.9999999999999643
  0
VERTEX
  5
20A
  8
INSIDE
 10
118.1758333333321
 20
2153.620277777778
 30
0.0
  0
VERTEX
  5
20B
  8
INSIDE
 10
201.5091666666663
 20
2153.620277777778
 30
0.0
 42
-1.0
  0
VERTEX
  5
20C
  8
INSIDE
 10
201.5091666666663
 20
2147.270277777777
 30
0.0
  0
VERTEX
  5
20D
  8
INSIDE
 10
201.5091666666663
 20
2141.970277777777
 30
0.0
 42
-1.0
  0
VERTEX
  5
20E
  8
INSIDE
 10
201.5091666666663
 20
2135.620277777778
 30
0.0
  0
SEQEND
  5
27D
  8
INSIDE
  0
POLYLINE
  5
7D
  8
INSIDE
 66
     1
 10
0.0
 20
0.0
 30
0.0
 70
     1
  0
VERTEX
  5
20F
  8
INSIDE
 10
339.4756750883729
 20
788.799076376555
 30
0.0
  0
VERTEX
  5
210
  8
INSIDE
 10
198.3852205313234
 20
788.799076376555
 30
0.0
 42
-1.0
  0
VERTEX
  5
211
  8
INSIDE
 10
193.9304478098481
 20
793.2538490980303
 30
0.0
  0
VERTEX
  5
212
  8
INSIDE
 10
193.9304478098481
 20
797.799076376555
 30
0.0
  0
VERTEX
  5
213
  8
INSIDE
 10
193.9304478098481
 20
802.3443036550798
 30
0.0
 42
-1.0
  0
VERTEX
  5
214
  8
INSIDE
 10
198.3852205313234
 20
806.799076376555
 30
0.0
  0
VERTEX
  5
215
  8
INSIDE
 10
339.4756750883729
 20
806.799076376555
 30
0.0
 42
-1.0
  0
VERTEX
  5
216
  8
INSIDE
 10
343.9304478098481
 20
802.3443036550798
 30
0.0
  0
VERTEX
  5
217
  8
INSIDE
 10
343.9304478098481
 20
793.2538490980303
 30
0.0
 42
-1.0
  0
SEQEND
  5
27E
  8
INSIDE
  0
POLYLINE
  5
7E
  8
INSIDE
 66
     1
 10
0.0
 20
0.0
 30
0.0
 70
     1
  0
VERTEX
  5
218
  8
INSIDE
 10
434.9304478098481
 20
1043.34430365508
 30
0.0
  0
VERTEX
  5
219
  8
INSIDE
 10
434.9304478098481
 20
902.2538490980303
 30
0.0
 42
1.0
  0
VERTEX
  5
21A
  8
INSIDE
 10
439.3852205313234
 20
897.799076376555
 30
0.0
  0
VERTEX
  5
21B
  8
INSIDE
 10
443.9304478098481
 20
897.799076376555
 30
0.0
  0
VERTEX
  5
21C
  8
INSIDE
 10
448.4756750883729
 20
897.799076376555
 30
0.0
 42
1.0
  0
VERTEX
  5
21D
  8
INSIDE
 10
452.9304478098481
 20
902.2538490980303
 30
0.0
  0
VERTEX
  5
21E
  8
INSIDE
 10
452.9304478098481
 20
1043.34430365508
 30
0.0
 42
1.0
  0
VERTEX
  5
21F
  8
INSIDE
 10
448.4756750883729
 20
1047.799076376555
 30
0.0
  0
VERTEX
  5
220
  8
INSIDE
 10
439.3852205313234
 20
1047.799076376555
 30
0.0
 42
1.0
  0
SEQEND
  5
27F
  8
INSIDE
  0
POLYLINE
  5
7F
  8
INSIDE
 66
     1
 10
0.0
 20
0.0
 30
0.0
 70
     1
  0
VERTEX
  5
221
  8
INSIDE
 10
198.3852205313234
 20
1138.799076376555
 30
0.0
  0
VERTEX
  5
222
  8
INSIDE
 10
339.4756750883729
 20
1138.799076376555
 30
0.0
 42
1.0
  0
VERTEX
  5
223
  8
INSIDE
 10
343.9304478098481
 20
1143.25384909803
 30
0.0
  0
VERTEX
  5
224
  8
INSIDE
 10
343.9304478098481
 20
1152.34430365508
 30
0.0
 42
1.0
  0
VERTEX
  5
225
  8
INSIDE
 10
339.4756750883729
 20
1156.799076376555
 30
0.0
  0
VERTEX
  5
226
  8
INSIDE
 10
198.3852205313234
 20
1156.799076376555
 30
0.0
 42
1.0
  0
VERTEX
  5
227
  8
INSIDE
 10
193.9304478098481
 20
1152.34430365508
 30
0.0
  0
VERTEX
  5
228
  8
INSIDE
 10
193.9304478098481
 20
1147.799076376555
 30
0.0
  0
VERTEX
  5
229
  8
INSIDE
 10
193.9304478098481
 20
1143.25384909803
 30
0.0
 42
1.0
  0
SEQEND
  5
280
  8
INSIDE
  0
POLYLINE
  5
80
  8
INSIDE
 66
     1
 10
0.0
 20
0.0
 30
0.0
 70
     1
  0
VERTEX
  5
22A
  8
INSIDE
 10
102.9304478098481
 20
1043.34430365508
 30
0.0
  0
VERTEX
  5
22B
  8
INSIDE
 10
102.9304478098482
 20
902.2538490980303
 30
0.0
 42
-1.0
  0
VERTEX
  5
22C
  8
INSIDE
 10
98.47567508837292
 20
897.799076376555
 30
0.0
  0
VERTEX
  5
22D
  8
INSIDE
 10
89.3852205313234
 20
897.799076376555
 30
0.0
 42
-1.0
  0
VERTEX
  5
22E
  8
INSIDE
 10
84.93044780984815
 20
902.2538490980303
 30
0.0
  0
VERTEX
  5
22F
  8
INSIDE
 10
84.93044780984818
 20
1043.34430365508
 30
0.0
 42
-1.0
  0
VERTEX
  5
230
  8
INSIDE
 10
89.38522053132343
 20
1047.799076376555
 30
0.0
  0
VERTEX
  5
231
  8
INSIDE
 10
93.93044780984815
 20
1047.799076376555
 30
0.0
  0
VERTEX
  5
232
  8
INSIDE
 10
98.4756750883729
 20
1047.799076376555
 30
0.0
 42
-1.0
  0
SEQEND
  5
281
  8
INSIDE
  0
POLYLINE
  5
82
  8
DRILL
 66
     1
 10
0.0
 20
0.0
 30
0.0
 70
     1
  0
VERTEX
  5
233
  8
DRILL
 10
1014.350833333333
 20
1235.8425
 30
0.0
 42
0.4142135623730951
  0
VERTEX
  5
234
  8
DRILL
 10
1011.175833333333
 20
1239.0175
 30
0.0
 42
0.4142135623730951
  0
VERTEX
  5
235
  8
DRILL
 10
1008.000833333333
 20
1235.8425
 30
0.0
 42
0.4142135623730951
  0
VERTEX
  5
236
  8
DRILL
 10
1011.175833333333
 20
1232.6675
 30
0.0
 42
0.4142135623730951
  0
SEQEND
  5
282
  8
DRILL
  0
POLYLINE
  5
83
  8
DRILL
 66
     1
 10
0.0
 20
0.0
 30
0.0
 70
     1
  0
VERTEX
  5
237
  8
DRILL
 10
847.6841666666664
 20
1235.8425
 30
0.0
 42
0.4142135623730951
  0
VERTEX
  5
238
  8
DRILL
 10
844.5091666666665
 20
1239.0175
 30
0.0
 42
0.4142135623730951
  0
VERTEX
  5
239
  8
DRILL
 10
841.3341666666665
 20
1235.8425
 30
0.0
 42
0.4142135623730951
  0
VERTEX
  5
23A
  8
DRILL
 10
844.5091666666665
 20
1232.6675
 30
0.0
 42
0.4142135623730951
  0
SEQEND
  5
283
  8
DRILL
  0
POLYLINE
  5
84
  8
DRILL
 66
     1
 10
0.0
 20
0.0
 30
0.0
 70
     1
  0
VERTEX
  5
23B
  8
DRILL
 10
1014.350833333333
 20
2397.8425
 30
0.0
 42
0.4142135623730951
  0
VERTEX
  5
23C
  8
DRILL
 10
1011.175833333333
 20
2401.0175
 30
0.0
 42
0.4142135623730951
  0
VERTEX
  5
23D
  8
DRILL
 10
1008.000833333333
 20
2397.8425
 30
0.0
 42
0.4142135623730951
  0
VERTEX
  5
23E
  8
DRILL
 10
1011.175833333333
 20
2394.6675
 30
0.0
 42
0.4142135623730951
  0
SEQEND
  5
284
  8
DRILL
  0
POLYLINE
  5
85
  8
DRILL
 66
     1
 10
0.0
 20
0.0
 30
0.0
 70
     1
  0
VERTEX
  5
23F
  8
DRILL
 10
847.6841666666664
 20
2397.8425
 30
0.0
 42
0.4142135623730951
  0
VERTEX
  5
240
  8
DRILL
 10
844.5091666666664
 20
2401.0175
 30
0.0
 42
0.4142135623730951
  0
VERTEX
  5
241
  8
DRILL
 10
841.3341666666664
 20
2397.8425
 30
0.0
 42
0.4142135623730951
  0
VERTEX
  5
242
  8
DRILL
 10
844.5091666666664
 20
2394.6675
 30
0.0
 42
0.4142135623730951
  0
SEQEND
  5
285
  8
DRILL
  0
POLYLINE
  5
86
  8
DRILL
 66
     1
 10
0.0
 20
0.0
 30
0.0
 70
     1
  0
VERTEX
  5
243
  8
DRILL
 10
156.6674999999991
 20
1235.842499999999
 30
0.0
 42
0.4142135623730951
  0
VERTEX
  5
244
  8
DRILL
 10
159.8424999999991
 20
1232.667499999999
 30
0.0
 42
0.4142135623730951
  0
VERTEX
  5
245
  8
DRILL
 10
163.017499999999
 20
1235.842499999999
 30
0.0
 42
0.4142135623730951
  0
VERTEX
  5
246
  8
DRILL
 10
159.8424999999991
 20
1239.017499999999
 30
0.0
 42
0.4142135623730951
  0
SEQEND
  5
286
  8
DRILL
  0
POLYLINE
  5
87
  8
DRILL
 66
     1
 10
0.0
 20
0.0
 30
0.0
 70
     1
  0
VERTEX
  5
247
  8
DRILL
 10
156.6674999999991
 20
2397.8425
 30
0.0
 42
0.4142135623730951
  0
VERTEX
  5
248
  8
DRILL
 10
159.8424999999991
 20
2394.6675
 30
0.0
 42
0.4142135623730951
  0
VERTEX
  5
249
  8
DRILL
 10
163.017499999999
 20
2397.8425
 30
0.0
 42
0.4142135623730951
  0
VERTEX
  5
24A
  8
DRILL
 10
159.8424999999991
 20
2401.0175
 30
0.0
 42
0.4142135623730951
  0
SEQEND
  5
287
  8
DRILL
  0
POLYLINE
  5
89
  8
POCKET
 66
     1
 10
0.0
 20
0.0
 30
0.0
 70
     1
  0
VERTEX
  5
24B
  8
POCKET
 10
118.1758333333321
 20
1226.842499999999
 30
0.0
  0
VERTEX
  5
24C
  8
POCKET
 10
118.1758333333325
 20
1244.842499999999
 30
0.0
 42
-1.0
  0
VERTEX
  5
24D
  8
POCKET
 10
124.5258333333331
 20
1244.842499999999
 30
0.0
  0
VERTEX
  5
24E
  8
POCKET
 10
195.1591666666661
 20
1244.8425
 30
0.0
 42
-0.9999999999999878
  0
VERTEX
  5
24F
  8
POCKET
 10
201.509166666666
 20
1244.8425
 30
0.0
  0
VERTEX
  5
250
  8
POCKET
 10
201.5091666666661
 20
1226.842499999999
 30
0.0
  0
VERTEX
  5
251
  8
POCKET
 10
201.5091666666661
 20
1221.842499999999
 30
0.0
  0
VERTEX
  5
252
  8
POCKET
 10
118.1758333333321
 20
1221.842499999999
 30
0.0
  0
SEQEND
  5
288
  8
POCKET
  0
POLYLINE
  5
8A
  8
POCKET
 66
     1
 10
0.0
 20
0.0
 30
0.0
 70
     1
  0
VERTEX
  5
253
  8
POCKET
 10
118.1758333333301
 20
2411.842499999999
 30
0.0
  0
VERTEX
  5
254
  8
POCKET
 10
118.1758333333311
 20
2406.8425
 30
0.0
  0
VERTEX
  5
255
  8
POCKET
 10
118.1758333333325
 20
2388.842499999999
 30
0.0
 42
1.0
  0
VERTEX
  5
256
  8
POCKET
 10
124.5258333333331
 20
2388.842499999999
 30
0.0
  0
VERTEX
  5
257
  8
POCKET
 10
195.1591666666662
 20
2388.842499999999
 30
0.0
 42
1.0
  0
VERTEX
  5
258
  8
POCKET
 10
201.5091666666663
 20
2388.842499999999
 30
0.0
  0
VERTEX
  5
259
  8
POCKET
 10
201.5091666666663
 20
2406.8425
 30
0.0
  0
VERTEX
  5
25A
  8
POCKET
 10
201.5091666666663
 20
2411.8425
 30
0.0
  0
SEQEND
  5
289
  8
POCKET
  0
POLYLINE
  5
8B
  8
POCKET
 66
     1
 10
0.0
 20
0.0
 30
0.0
 70
     1
  0
VERTEX
  5
25B
  8
POCKET
 10
886.175833333333
 20
2411.8425
 30
0.0
  0
VERTEX
  5
25C
  8
POCKET
 10
969.5091666666686
 20
2411.842499999998
 30
0.0
  0
VERTEX
  5
25D
  8
POCKET
 10
969.5091666666674
 20
2406.842499999999
 30
0.0
  0
VERTEX
  5
25E
  8
POCKET
 10
969.5091666666663
 20
2388.8425
 30
0.0
 42
-0.9999999999999956
  0
VERTEX
  5
25F
  8
POCKET
 10
963.1591666666664
 20
2388.8425
 30
0.0
  0
VERTEX
  5
260
  8
POCKET
 10
892.525833333333
 20
2388.8425
 30
0.0
 42
-0.9999999999999956
  0
VERTEX
  5
261
  8
POCKET
 10
886.175833333333
 20
2388.8425
 30
0.0
  0
VERTEX
  5
262
  8
POCKET
 10
886.175833333333
 20
2406.8425
 30
0.0
  0
SEQEND
  5
28A
  8
POCKET
  0
POLYLINE
  5
8C
  8
POCKET
 66
     1
 10
0.0
 20
0.0
 30
0.0
 70
     1
  0
VERTEX
  5
263
  8
POCKET
 10
886.5091666666663
 20
1221.8425
 30
0.0
  0
VERTEX
  5
264
  8
POCKET
 10
969.5091666666663
 20
1221.8425
 30
0.0
  0
VERTEX
  5
265
  8
POCKET
 10
969.5091666666663
 20
1226.8425
 30
0.0
  0
VERTEX
  5
266
  8
POCKET
 10
969.5091666666663
 20
1244.8425
 30
0.0
 42
0.999999999999982
  0
VERTEX
  5
267
  8
POCKET
 10
963.1591666666664
 20
1244.8425
 30
0.0
  0
VERTEX
  5
268
  8
POCKET
 10
892.5258333333331
 20
1244.8425
 30
0.0
 42
0.999999999999982
  0
VERTEX
  5
269
  8
POCKET
 10
886.1758333333331
 20
1244.8425
 30
0.0
  0
VERTEX
  5
26A
  8
POCKET
 10
886.1758333333331
 20
1226.8425
 30
0.0
  0
VERTEX
  5
26B
  8
POCKET
 10
886.1758333333331
 20
1221.8425
 30
0.0
  0
SEQEND
  5
28B
  8
POCKET
  0
ENDSEC
  0
EOF
